<svg width="27" height="27" viewBox="0 0 27 27" fill="none" xmlns="http://www.w3.org/2000/svg">
<path d="M22.3297 0H4.13514C1.85136 0 0 1.85136 0 4.13514V22.3297C0 24.6135 1.85136 26.4649 4.13514 26.4649H22.3297C24.6135 26.4649 26.4649 24.6135 26.4649 22.3297V4.13514C26.4649 1.85136 24.6135 0 22.3297 0Z" fill="#02A2AC"/>
<path d="M16.1112 14.4986L16.5007 11.9629H14.0668V10.3172C14.0497 10.1277 14.0755 9.93686 14.1423 9.75874C14.209 9.58062 14.3149 9.41979 14.4523 9.28818C14.5896 9.15657 14.7548 9.05755 14.9356 8.99845C15.1164 8.93935 15.3082 8.92169 15.4967 8.94677H16.6033V6.78741C15.9536 6.68251 15.2971 6.62529 14.6391 6.61621C12.6352 6.61621 11.3227 7.83111 11.3227 10.0294V11.9629H9.09717V14.4986H11.3227V20.6294H14.0668V14.4986H16.1112Z" fill="white"/>
</svg>
