<svg width="27" height="27" viewBox="0 0 27 27" fill="none" xmlns="http://www.w3.org/2000/svg">
<path d="M22.3297 0H4.13514C1.85136 0 0 1.85136 0 4.13514V22.3297C0 24.6135 1.85136 26.4649 4.13514 26.4649H22.3297C24.6135 26.4649 26.4649 24.6135 26.4649 22.3297V4.13514C26.4649 1.85136 24.6135 0 22.3297 0Z" fill="#02A2AC"/>
<path d="M13.2323 5.78931C11.2102 5.78931 10.958 5.7984 10.164 5.83397C9.54513 5.84623 8.93276 5.96311 8.35285 6.17966C7.85735 6.36686 7.40861 6.65981 7.03787 7.03812C6.65924 7.40858 6.36624 7.8574 6.17942 8.35309C5.96257 8.93292 5.84568 9.54534 5.83372 10.1643C5.79651 10.9582 5.78906 11.2105 5.78906 13.2325C5.78906 15.2546 5.79816 15.5069 5.83372 16.3008C5.84651 16.9183 5.96338 17.5293 6.17942 18.1079C6.36636 18.6045 6.65931 19.0543 7.03787 19.4262C7.40849 19.8046 7.85727 20.0976 8.35285 20.2846C8.93149 20.5006 9.5424 20.6174 10.1599 20.6303C10.958 20.6683 11.2102 20.6758 13.2323 20.6758C15.2544 20.6758 15.5066 20.6667 16.3006 20.6311C16.918 20.618 17.5289 20.5012 18.1076 20.2854C18.6021 20.0943 19.0511 19.8019 19.426 19.4271C19.8009 19.0522 20.0932 18.6032 20.2844 18.1087C20.5004 17.5301 20.6173 16.9192 20.6301 16.3016C20.6681 15.5069 20.6755 15.2546 20.6755 13.2325C20.6755 11.2105 20.6665 10.9582 20.6309 10.1643C20.618 9.54536 20.5009 8.93304 20.2844 8.35309C20.0969 7.85772 19.804 7.40902 19.4259 7.03812C19.0546 6.65895 18.6046 6.36591 18.1076 6.17966C17.5291 5.96334 16.9181 5.84646 16.3006 5.83397C15.5066 5.79675 15.2544 5.78931 13.2323 5.78931ZM13.2323 7.12909C15.2172 7.12909 15.4562 7.13901 16.2402 7.17292C16.7119 7.17858 17.1792 7.26559 17.6213 7.43013C17.9428 7.55312 18.2348 7.74249 18.4782 7.98588C18.7215 8.22927 18.9109 8.52121 19.0339 8.84269C19.198 9.28494 19.2847 9.75214 19.2903 10.2238C19.3258 11.0087 19.3341 11.2444 19.3341 13.2317C19.3341 15.2191 19.325 15.4556 19.2878 16.2396C19.2791 16.7114 19.1907 17.1784 19.0265 17.6208C18.9054 17.9436 18.7151 18.236 18.469 18.4776C18.2285 18.724 17.9361 18.9138 17.6131 19.0333C17.1691 19.1974 16.7003 19.2841 16.227 19.2897C15.4372 19.3253 15.2039 19.3335 13.2133 19.3335C11.2226 19.3335 10.9894 19.3244 10.1996 19.2872C9.72589 19.2786 9.25702 19.1903 8.81267 19.0259C8.48955 18.9063 8.19733 18.7158 7.95753 18.4685C7.70896 18.2304 7.51803 17.9388 7.39928 17.6158C7.23539 17.1716 7.14732 16.7031 7.13877 16.2297C7.11065 15.4482 7.10073 15.2067 7.10073 13.2251C7.10073 11.2436 7.11231 10.9996 7.13877 10.2081C7.14729 9.73501 7.23536 9.26672 7.39928 8.82284C7.5157 8.49747 7.70692 8.20399 7.95753 7.96604C8.19506 7.71611 8.48797 7.52546 8.81267 7.40945C9.25364 7.24423 9.71966 7.15583 10.1905 7.14811C10.9811 7.11999 11.2135 7.11255 13.2042 7.11255L13.2323 7.12909ZM13.2323 9.41003C12.4765 9.41003 11.7376 9.63415 11.1092 10.054C10.4807 10.4739 9.99088 11.0708 9.7016 11.769C9.41232 12.4673 9.33659 13.2357 9.48399 13.977C9.63138 14.7183 9.99528 15.3993 10.5297 15.9338C11.0641 16.4683 11.7449 16.8323 12.4862 16.9799C13.2275 17.1274 13.9959 17.0519 14.6942 16.7627C15.3926 16.4736 15.9895 15.9839 16.4095 15.3555C16.8296 14.7272 17.0538 13.9884 17.054 13.2325C17.0541 12.7306 16.9553 12.2336 16.7633 11.7698C16.5713 11.306 16.2898 10.8846 15.9349 10.5297C15.5801 10.1747 15.1587 9.89313 14.695 9.70102C14.2313 9.50891 13.7342 9.41003 13.2323 9.41003ZM13.2323 15.7136C12.7416 15.7136 12.2619 15.5681 11.8539 15.2955C11.4459 15.0229 11.1279 14.6354 10.9401 14.182C10.7523 13.7287 10.7032 13.2298 10.7989 12.7485C10.8946 12.2672 11.1309 11.8251 11.4779 11.4782C11.8249 11.1312 12.267 10.8949 12.7483 10.7991C13.2296 10.7034 13.7284 10.7525 14.1818 10.9403C14.6351 11.1281 15.0226 11.4461 15.2952 11.8541C15.5679 12.2621 15.7134 12.7418 15.7134 13.2325C15.7134 13.8906 15.452 14.5216 14.9867 14.9869C14.5214 15.4522 13.8903 15.7136 13.2323 15.7136ZM18.0985 9.26282C18.098 9.43923 18.0453 9.61154 17.947 9.75803C17.8487 9.90451 17.7093 10.0186 17.5462 10.0859C17.3831 10.1532 17.2038 10.1708 17.0308 10.1363C16.8578 10.1018 16.6989 10.0169 16.5741 9.8922C16.4493 9.76752 16.3642 9.60868 16.3295 9.4357C16.2949 9.26273 16.3123 9.08337 16.3794 8.92024C16.4466 8.75712 16.5606 8.61755 16.707 8.51911C16.8534 8.42068 17.0256 8.3678 17.202 8.36715C17.3198 8.36682 17.4364 8.38976 17.5453 8.43465C17.6542 8.47953 17.7531 8.54548 17.8364 8.62871C17.9197 8.71193 17.9857 8.81079 18.0307 8.91961C18.0757 9.02843 18.0988 9.14507 18.0985 9.26282Z" fill="white"/>
</svg>
