<svg width="27" height="27" viewBox="0 0 27 27" fill="none" xmlns="http://www.w3.org/2000/svg">
<path d="M22.3297 0H4.13514C1.85136 0 0 1.85136 0 4.13514V22.3297C0 24.6135 1.85136 26.4649 4.13514 26.4649H22.3297C24.6135 26.4649 26.4649 24.6135 26.4649 22.3297V4.13514C26.4649 1.85136 24.6135 0 22.3297 0Z" fill="#02A2AC"/>
<path d="M9.17998 20.8088H6.03728V10.691H9.17998V20.8088ZM7.60863 9.31066C7.24698 9.31245 6.89292 9.20697 6.59122 9.00754C6.28953 8.80811 6.05374 8.5237 5.91369 8.19027C5.77363 7.85683 5.73559 7.48936 5.80438 7.13431C5.87317 6.77926 6.0457 6.45258 6.30015 6.19559C6.5546 5.93859 6.87955 5.76282 7.2339 5.6905C7.58824 5.61818 7.95608 5.65256 8.29089 5.78929C8.6257 5.92602 8.91244 6.15897 9.11486 6.45866C9.31728 6.75836 9.42628 7.11135 9.42809 7.473C9.42876 7.95744 9.23786 8.42249 8.89702 8.76674C8.55618 9.11099 8.09305 9.30651 7.60863 9.31066ZM20.9411 20.8063H17.8059V15.8839C17.8059 14.7103 17.7819 13.2043 16.1725 13.2043C14.5391 13.2043 14.2885 14.4796 14.2885 15.7987V20.8088H11.1458V10.691H14.1595V12.0713H14.2033C14.5047 11.5553 14.9404 11.1308 15.4639 10.843C15.9875 10.5553 16.5794 10.4149 17.1765 10.4371C20.3564 10.4371 20.9411 12.5311 20.9411 15.2512V20.8096V20.8063Z" fill="white"/>
</svg>
