<svg width="26" height="26" viewBox="0 0 26 26" fill="none" xmlns="http://www.w3.org/2000/svg">
<g clip-path="url(#clip0_637_37777)">
<path d="M21.9375 0H4.0625C1.81884 0 0 1.81884 0 4.0625V21.9375C0 24.1812 1.81884 26 4.0625 26H21.9375C24.1812 26 26 24.1812 26 21.9375V4.0625C26 1.81884 24.1812 0 21.9375 0Z" fill="#02A2AC"/>
<path d="M18.8094 10.2723C18.8183 10.4023 18.8183 10.5323 18.8183 10.6623C18.8261 11.7844 18.6108 12.8969 18.185 13.935C17.7592 14.9732 17.1313 15.9164 16.3379 16.7099C15.5444 17.5033 14.6012 18.1312 13.563 18.557C12.5248 18.9828 11.4124 19.1981 10.2903 19.1903C8.65846 19.1946 7.06013 18.7274 5.6875 17.8448C5.92788 17.8714 6.1696 17.8839 6.41144 17.8822C7.7605 17.8857 9.0714 17.4346 10.1327 16.6017C9.50744 16.5898 8.90147 16.3832 8.39918 16.0106C7.89689 15.6381 7.52328 15.1182 7.33038 14.5233C7.51852 14.5531 7.70865 14.5686 7.89912 14.5697C8.16536 14.5688 8.43043 14.5344 8.68806 14.4673C8.00871 14.3306 7.3977 13.9627 6.95894 13.4264C6.52018 12.89 6.28078 12.2182 6.28144 11.5252V11.4878C6.69708 11.72 7.16175 11.8506 7.6375 11.8689C7.00111 11.4448 6.55056 10.7938 6.37783 10.0488C6.20509 9.30377 6.32318 8.52093 6.708 7.86003C7.46094 8.7867 8.40026 9.54476 9.46502 10.085C10.5298 10.6253 11.6962 10.9358 12.8887 10.9963C12.8407 10.7705 12.8159 10.5405 12.8148 10.3097C12.8154 9.70853 12.9967 9.1214 13.335 8.62444C13.6733 8.12749 14.1531 7.74362 14.7122 7.52261C15.2713 7.3016 15.8839 7.25364 16.4706 7.38493C17.0573 7.51623 17.591 7.82073 18.0026 8.25897C18.6743 8.12981 19.3184 7.88485 19.9062 7.53503C19.6827 8.22772 19.2141 8.81505 18.5884 9.18684C19.183 9.11887 19.7641 8.9625 20.3125 8.72291C19.9022 9.32024 19.394 9.84407 18.8094 10.2723Z" fill="white"/>
</g>
<defs>
<clipPath id="clip0_637_37777">
<rect width="26" height="26" fill="white"/>
</clipPath>
</defs>
</svg>
