<svg width="342" height="122" viewBox="0 0 342 122" fill="none" xmlns="http://www.w3.org/2000/svg">
<path d="M111.809 64.9738C111.742 92.2736 93.4202 114.888 67.4111 120.634C39.1575 126.879 9.39995 108.861 2.13873 80.8318C-3.55128 58.8517 2.18362 39.9636 18.4905 24.2571C21.6385 21.227 26.3521 21.2157 29.4384 24.0832C32.6875 27.1078 33.041 31.7597 29.9603 35.1321C26.296 39.1443 22.5981 43.0611 20.1459 48.0216C7.02069 74.575 26.2399 105.887 55.8628 105.735C71.4794 105.651 83.5216 98.4742 90.9736 84.7542C98.2405 71.3765 97.64 57.7575 89.7503 44.7109C87.7751 41.4394 84.9918 38.6281 82.3937 35.7775C79.2064 32.2759 79.0269 27.5062 82.1973 24.3076C85.3397 21.1316 90.2105 21.2775 93.6503 24.5209C103.734 34.0267 109.738 45.6256 111.54 59.3624C111.82 61.506 111.753 63.6944 111.809 64.9795V64.9738Z" fill="white"/>
<path d="M53.7025 69.5576C50.4759 72.9918 47.6701 75.8537 45.0215 78.8558C43.9105 80.1128 42.9621 81.5774 42.2046 83.0812C40.2855 86.897 40.6109 91.4928 42.8611 93.7766C45.2179 96.1727 48.1022 97.0145 51.3457 96.212C54.9706 95.3142 56.5082 92.4692 57.2489 89.1584C58.7808 82.2844 54.3927 76.5775 53.7025 69.552V69.5576ZM47.0417 91.7846C46.9968 92.4187 46.3571 93.44 45.8577 93.5297C44.6119 93.7486 42.8667 91.0158 42.8219 88.4626C43.0407 88.255 43.5177 87.4189 44.1013 87.3403C45.3919 87.1551 47.182 89.8262 47.0417 91.7846Z" fill="white"/>
<path d="M34.1016 43.9699C34.6234 44.2954 34.7918 44.4637 34.9938 44.5142C38.2821 45.3728 39.6457 47.7408 40.6052 50.844C42.53 57.0615 44.8307 63.1611 46.9462 69.3225C47.1426 69.9005 47.1314 70.557 47.2155 71.1743C47.4456 71.1518 47.6701 71.1238 47.9001 71.1013C50.5263 65.6414 53.1524 60.1758 55.8628 54.5363C61.9231 57.4486 67.7871 60.2712 73.6567 63.0938L73.8475 62.701C67.9891 59.884 62.1308 57.0671 56.076 54.1547C56.4183 53.4421 56.6596 52.9483 56.8953 52.4488C62.9332 39.8848 68.887 27.2815 75.0764 14.7904C76.6757 11.5582 78.8417 8.55605 81.0694 5.69982C82.1693 4.29134 84.0042 3.45524 85.6428 2.26561C84.3241 1.77741 82.9156 1.10404 81.4342 0.739294C73.4715 -1.21349 66.5414 0.705625 60.683 6.45737C57.1366 9.94769 54.6114 14.1338 52.4566 18.5725C49.0841 25.5082 45.7509 32.4665 42.3055 39.3629C40.4369 43.1058 38.6525 44.0597 34.1016 43.9812V43.9699Z" fill="white"/>
<path d="M15.1235 114.467L15.1351 114.49L15.1467 114.467H15.1235Z" fill="white"/>
<path d="M149.411 45.5413V54.8114H140.119V83.2558H130.018V54.8114H121.09V45.5413H149.411Z" fill="white"/>
<path d="M223.314 73.9969V83.2558H195.257V45.5413H205.363V73.9969H223.314Z" fill="white"/>
<path d="M258.784 73.9969V83.2558H230.727V45.5413H240.833V73.9969H258.784Z" fill="white"/>
<path d="M295.932 73.9969V83.2558H266.584V45.5413H295.208V54.8114H276.685V59.7214H293.081V68.9859H276.685V73.9969H295.932Z" fill="white"/>
<path d="M176.262 89.8381H182.131L181.98 91.7572H177.468L177.087 96.5045H181.037L180.874 98.4237H176.924L176.419 104.765H175.05L176.273 89.8325L176.262 89.8381Z" fill="white"/>
<path d="M185.757 105.101C185.246 105.101 184.836 104.871 184.533 104.41C184.23 103.95 184.107 103.339 184.163 102.581L184.668 96.2234H185.959L185.493 101.925C185.465 102.351 185.527 102.71 185.673 102.996C185.818 103.288 186.054 103.44 186.385 103.451C186.716 103.451 187.014 103.311 187.289 103.03C187.564 102.75 187.794 102.362 187.99 101.874C188.181 101.386 188.299 100.83 188.349 100.213L188.68 96.229H189.954L189.269 104.781H188.102L188.17 102.755L188.226 103.024C188.08 103.412 187.883 103.765 187.631 104.091C187.378 104.416 187.098 104.663 186.778 104.843C186.464 105.022 186.121 105.112 185.757 105.112V105.101Z" fill="white"/>
<path d="M195.812 103.328C196.042 103.328 196.261 103.272 196.48 103.154C196.699 103.036 196.895 102.891 197.075 102.711L197.54 104.198C197.265 104.434 196.968 104.619 196.648 104.754C196.328 104.888 196.008 104.961 195.689 104.961C195.094 104.961 194.572 104.793 194.123 104.456C193.674 104.119 193.321 103.626 193.068 102.98C192.81 102.335 192.687 101.549 192.687 100.624C192.687 100.074 192.759 99.5237 192.9 98.9738C193.04 98.4238 193.248 97.9132 193.517 97.4474C193.786 96.9817 194.129 96.6057 194.538 96.3195C194.948 96.039 195.431 95.8987 195.98 95.8987C196.312 95.8987 196.626 95.966 196.934 96.1063C197.243 96.2466 197.524 96.4654 197.776 96.7685C198.034 97.0715 198.247 97.4755 198.427 97.9861C198.607 98.4968 198.736 99.1309 198.82 99.8884L193.949 101.914L193.741 100.736L197.9 98.9569L197.434 99.2656C197.333 98.7269 197.153 98.2892 196.884 97.9413C196.62 97.599 196.3 97.425 195.936 97.425C195.526 97.425 195.172 97.5653 194.881 97.8459C194.589 98.1264 194.364 98.4968 194.207 98.9513C194.05 99.4058 193.972 99.894 193.972 100.416C193.972 101.078 194.056 101.622 194.23 102.049C194.404 102.475 194.634 102.795 194.914 103.008C195.195 103.222 195.498 103.328 195.806 103.328H195.812Z" fill="white"/>
<path d="M202.658 88.7881H203.949L202.647 104.769H201.373L202.664 88.7881H202.658Z" fill="white"/>
<path d="M206.923 96.2236H208.214L207.501 104.775H206.227L206.928 96.2236H206.923ZM207.007 93.3337C207.018 93.0195 207.102 92.7502 207.26 92.5313C207.417 92.3125 207.613 92.2058 207.843 92.2227C208.017 92.2227 208.18 92.3068 208.337 92.4696C208.494 92.6323 208.567 92.8904 208.556 93.2327C208.545 93.5526 208.466 93.8163 208.309 94.0408C208.152 94.2652 207.967 94.3719 207.748 94.3719C207.563 94.3719 207.394 94.2877 207.243 94.1137C207.086 93.9398 207.007 93.6817 207.007 93.3394V93.3337Z" fill="white"/>
<path d="M212.933 96.2234L212.921 98.1425L212.826 97.8956C213.073 97.2896 213.41 96.807 213.836 96.4423C214.263 96.0775 214.751 95.8923 215.312 95.8923C215.873 95.8923 216.288 96.128 216.597 96.5938C216.906 97.0595 217.035 97.6824 216.99 98.4512L216.485 104.77H215.194L215.649 99.1133C215.682 98.6588 215.621 98.2884 215.463 97.9966C215.306 97.7104 215.043 97.5646 214.689 97.5646C214.335 97.5646 214.044 97.7048 213.763 97.9798C213.483 98.2548 213.252 98.6363 213.073 99.1133C212.893 99.5903 212.77 100.151 212.714 100.786L212.383 104.77H211.109L211.793 96.2178H212.944L212.933 96.2234Z" fill="white"/>
<path d="M222.742 109.006C222.287 109.006 221.883 108.933 221.541 108.787C221.199 108.642 220.896 108.434 220.626 108.159C220.362 107.884 220.104 107.57 219.857 107.211L220.722 105.909C220.924 106.223 221.131 106.487 221.339 106.694C221.546 106.902 221.782 107.054 222.029 107.16C222.276 107.267 222.551 107.317 222.843 107.317C223.224 107.317 223.55 107.216 223.819 107.009C224.083 106.801 224.302 106.52 224.464 106.161C224.627 105.802 224.728 105.381 224.767 104.904L224.947 102.592L225.042 102.946C224.868 103.535 224.571 104.023 224.15 104.399C223.729 104.781 223.236 104.966 222.669 104.966C222.136 104.966 221.664 104.792 221.249 104.439C220.834 104.085 220.503 103.586 220.256 102.929C220.009 102.273 219.885 101.493 219.885 100.583C219.885 100.129 219.947 99.6352 220.076 99.0965C220.205 98.5578 220.402 98.0471 220.66 97.5589C220.918 97.0707 221.255 96.6667 221.659 96.3525C222.068 96.0382 222.551 95.8755 223.118 95.8755C223.684 95.8755 224.173 96.0382 224.577 96.3693C224.986 96.7004 225.267 97.1212 225.418 97.6319L225.256 98.0247L225.587 96.229H226.765L226.008 105.235C225.951 105.993 225.783 106.655 225.503 107.227C225.216 107.8 224.84 108.238 224.369 108.546C223.898 108.855 223.353 109.012 222.73 109.012L222.742 109.006ZM223.359 97.4635C222.955 97.4635 222.618 97.5702 222.343 97.7834C222.068 97.9966 221.849 98.2716 221.687 98.597C221.524 98.9281 221.401 99.2704 221.322 99.6183C221.243 99.9718 221.204 100.292 221.204 100.578C221.204 101.145 221.283 101.633 221.44 102.042C221.597 102.452 221.816 102.778 222.108 103.013C222.394 103.249 222.725 103.367 223.101 103.367C223.393 103.367 223.668 103.283 223.931 103.109C224.195 102.935 224.42 102.693 224.616 102.385C224.812 102.076 224.964 101.723 225.076 101.324L225.2 99.6127C225.155 99.1975 225.048 98.8271 224.874 98.496C224.706 98.165 224.492 97.9124 224.234 97.7329C223.976 97.5533 223.684 97.4635 223.359 97.4635Z" fill="white"/>
<path d="M235.429 104.769L236.652 89.8374H239.548C240.474 89.8374 241.243 90.045 241.854 90.4659C242.466 90.8867 242.949 91.4423 243.296 92.1381C243.644 92.8339 243.88 93.6195 244.009 94.4949C244.138 95.3703 244.177 96.2681 244.133 97.1884C244.076 98.3836 243.897 99.4554 243.599 100.387C243.296 101.324 242.898 102.115 242.404 102.761C241.91 103.406 241.349 103.905 240.732 104.248C240.109 104.59 239.453 104.764 238.757 104.764H235.435L235.429 104.769ZM236.911 102.828H238.734C239.273 102.828 239.784 102.71 240.255 102.469C240.732 102.227 241.153 101.868 241.518 101.386C241.882 100.903 242.174 100.303 242.399 99.5789C242.617 98.855 242.747 98.0189 242.78 97.0706C242.825 96.1503 242.769 95.3535 242.617 94.6857C242.46 94.0179 242.23 93.468 241.916 93.0415C241.602 92.6151 241.248 92.2952 240.839 92.0932C240.429 91.8856 239.997 91.7846 239.531 91.7846H237.814L236.911 102.834V102.828Z" fill="white"/>
<path d="M247.516 96.2236H248.807L248.094 104.775H246.82L247.522 96.2236H247.516ZM247.6 93.3337C247.612 93.0195 247.696 92.7502 247.853 92.5313C248.01 92.3125 248.206 92.2058 248.436 92.2227C248.61 92.2227 248.773 92.3068 248.93 92.4696C249.087 92.6323 249.16 92.8904 249.149 93.2327C249.138 93.5526 249.059 93.8163 248.902 94.0408C248.745 94.2652 248.56 94.3719 248.341 94.3719C248.156 94.3719 247.988 94.2877 247.836 94.1137C247.679 93.9398 247.6 93.6817 247.6 93.3394V93.3337Z" fill="white"/>
<path d="M254.379 109.006C253.924 109.006 253.52 108.933 253.178 108.787C252.836 108.642 252.533 108.434 252.263 108.159C252 107.884 251.742 107.57 251.495 107.211L252.359 105.909C252.561 106.223 252.768 106.487 252.976 106.694C253.184 106.902 253.419 107.054 253.666 107.16C253.913 107.267 254.188 107.317 254.48 107.317C254.862 107.317 255.187 107.216 255.456 107.009C255.72 106.801 255.939 106.52 256.102 106.161C256.264 105.802 256.365 105.381 256.405 104.904L256.584 102.592L256.68 102.946C256.506 103.535 256.208 104.023 255.787 104.399C255.367 104.781 254.873 104.966 254.306 104.966C253.773 104.966 253.302 104.792 252.886 104.439C252.471 104.085 252.14 103.586 251.893 102.929C251.646 102.273 251.523 101.493 251.523 100.583C251.523 100.129 251.584 99.6352 251.713 99.0965C251.843 98.5578 252.039 98.0471 252.297 97.5589C252.555 97.0707 252.892 96.6667 253.296 96.3525C253.706 96.0382 254.188 95.8755 254.755 95.8755C255.322 95.8755 255.81 96.0382 256.214 96.3693C256.623 96.7004 256.904 97.1212 257.056 97.6319L256.893 98.0247L257.224 96.229H258.402L257.645 105.235C257.589 105.993 257.42 106.655 257.14 107.227C256.854 107.8 256.478 108.238 256.006 108.546C255.535 108.855 254.991 109.012 254.368 109.012L254.379 109.006ZM254.996 97.4635C254.592 97.4635 254.255 97.5702 253.98 97.7834C253.706 97.9966 253.487 98.2716 253.324 98.597C253.161 98.9281 253.038 99.2704 252.959 99.6183C252.881 99.9718 252.841 100.292 252.841 100.578C252.841 101.145 252.92 101.633 253.077 102.042C253.234 102.452 253.453 102.778 253.745 103.013C254.031 103.249 254.362 103.367 254.738 103.367C255.03 103.367 255.305 103.283 255.569 103.109C255.832 102.935 256.057 102.693 256.253 102.385C256.45 102.076 256.601 101.723 256.713 101.324L256.837 99.6127C256.792 99.1975 256.685 98.8271 256.511 98.496C256.343 98.165 256.13 97.9124 255.872 97.7329C255.613 97.5533 255.322 97.4635 254.996 97.4635Z" fill="white"/>
<path d="M261.977 96.2236H263.268L262.555 104.775H261.281L261.983 96.2236H261.977ZM262.061 93.3337C262.072 93.0195 262.157 92.7502 262.314 92.5313C262.471 92.3125 262.667 92.2058 262.897 92.2227C263.071 92.2227 263.234 92.3068 263.391 92.4696C263.548 92.6323 263.621 92.8904 263.61 93.2327C263.599 93.5526 263.52 93.8163 263.363 94.0408C263.206 94.2652 263.021 94.3719 262.802 94.3719C262.617 94.3719 262.448 94.2877 262.297 94.1137C262.14 93.9398 262.061 93.6817 262.061 93.3394V93.3337Z" fill="white"/>
<path d="M267.656 92.4641H268.93L268.627 96.2631H270.192L270.069 97.7894H268.503L267.942 104.77H266.668L267.218 97.7894H266.174L266.298 96.2631H267.353L267.656 92.4641Z" fill="white"/>
<path d="M274.748 104.938C274.316 104.949 273.918 104.786 273.542 104.444C273.166 104.102 272.863 103.619 272.627 102.996C272.392 102.379 272.279 101.638 272.279 100.786C272.279 100.208 272.352 99.6296 272.493 99.0516C272.633 98.4736 272.84 97.9461 273.11 97.4635C273.379 96.9809 273.71 96.5938 274.103 96.3076C274.496 96.0214 274.945 95.8755 275.45 95.8755C275.859 95.8755 276.207 95.9653 276.493 96.1448C276.774 96.3244 277.015 96.5545 277.206 96.8351C277.397 97.1156 277.548 97.4355 277.661 97.7946L277.537 98.1481L277.823 96.229H278.991L278.306 104.781H277.032L277.212 102.615L277.307 103.131C277.262 103.255 277.167 103.423 277.027 103.625C276.886 103.833 276.707 104.04 276.493 104.242C276.28 104.444 276.022 104.618 275.73 104.758C275.439 104.899 275.113 104.96 274.754 104.944L274.748 104.938ZM275.45 103.367C275.725 103.367 275.983 103.283 276.224 103.12C276.465 102.957 276.684 102.716 276.875 102.396C277.066 102.076 277.212 101.717 277.313 101.302L277.436 99.5903C277.403 99.175 277.302 98.8103 277.139 98.4848C276.976 98.1594 276.774 97.9124 276.522 97.7329C276.269 97.5533 275.983 97.4635 275.663 97.4635C275.287 97.4635 274.973 97.5645 274.709 97.7722C274.451 97.9798 274.238 98.2379 274.069 98.5578C273.907 98.8776 273.783 99.2143 273.71 99.5678C273.637 99.9213 273.604 100.258 273.604 100.561C273.604 101.111 273.682 101.599 273.839 102.014C273.996 102.43 274.21 102.766 274.49 103.008C274.771 103.249 275.085 103.367 275.444 103.367H275.45Z" fill="white"/>
<path d="M283.188 88.7881H284.479L283.177 104.769H281.903L283.194 88.7881H283.188Z" fill="white"/>
<path d="M300.471 103.821C300.281 104.029 300.011 104.225 299.663 104.411C299.316 104.596 298.94 104.747 298.541 104.854C298.143 104.961 297.756 105.011 297.391 105C297.054 105 296.701 104.932 296.33 104.803C295.96 104.674 295.595 104.489 295.23 104.248C294.871 104.007 294.523 103.698 294.192 103.328C293.861 102.957 293.575 102.514 293.328 101.998C293.081 101.481 292.885 100.892 292.745 100.219C292.604 99.5511 292.537 98.8047 292.548 97.9799C292.565 97.2672 292.643 96.5209 292.784 95.7521C292.918 94.9833 293.126 94.237 293.407 93.5244C293.687 92.8061 294.041 92.172 294.467 91.6165C294.899 91.0609 295.404 90.612 295.982 90.2753C296.56 89.9387 297.234 89.7815 297.991 89.8096C298.541 89.8264 299.091 89.9387 299.635 90.1631C300.185 90.382 300.679 90.713 301.117 91.1563L300.511 92.9744C300.174 92.6153 299.77 92.3291 299.31 92.1159C298.85 91.9027 298.395 91.8017 297.958 91.8185C297.363 91.8185 296.841 91.9476 296.392 92.2001C295.943 92.4526 295.561 92.7949 295.253 93.2214C294.944 93.6478 294.692 94.1248 294.495 94.6579C294.304 95.191 294.164 95.7353 294.069 96.302C293.979 96.8688 293.928 97.4131 293.917 97.935C293.917 98.6252 293.985 99.2424 294.125 99.7811C294.26 100.325 294.456 100.797 294.703 101.195C294.95 101.594 295.225 101.925 295.533 102.188C295.842 102.452 296.162 102.649 296.499 102.789C296.835 102.929 297.166 103.008 297.486 103.036C297.789 103.053 298.092 103.025 298.406 102.952C298.721 102.879 298.99 102.766 299.214 102.598L299.461 99.4613H297.486L297.638 97.559H300.988L300.466 103.838L300.471 103.821Z" fill="white"/>
<path d="M305.864 96.2234L305.769 98.3109C305.959 97.7722 306.201 97.3289 306.487 96.9809C306.773 96.6274 307.076 96.3637 307.402 96.1729C307.721 95.9877 308.008 95.8867 308.266 95.8755L308.058 97.8171C307.626 97.7609 307.239 97.8844 306.891 98.1762C306.543 98.4736 306.257 98.8552 306.032 99.3321C305.808 99.8091 305.673 100.32 305.628 100.87L305.297 104.775H304.035L304.719 96.2234H305.858H305.864Z" fill="white"/>
<path d="M313.187 104.978C312.839 104.978 312.486 104.888 312.127 104.709C311.767 104.529 311.436 104.265 311.145 103.912C310.853 103.558 310.617 103.126 310.443 102.599C310.269 102.077 310.185 101.465 310.185 100.764C310.185 100.242 310.247 99.692 310.37 99.1196C310.494 98.5473 310.684 98.0198 310.937 97.5428C311.195 97.0602 311.526 96.6674 311.947 96.3532C312.362 96.0446 312.873 95.8875 313.479 95.8875C313.99 95.8875 314.472 96.0558 314.927 96.3925C315.381 96.7292 315.752 97.2118 316.038 97.8402C316.324 98.4687 316.47 99.215 316.47 100.079C316.47 100.45 316.436 100.859 316.369 101.308C316.302 101.757 316.189 102.195 316.038 102.621C315.886 103.048 315.684 103.435 315.432 103.788C315.179 104.142 314.871 104.428 314.5 104.647C314.13 104.866 313.692 104.978 313.187 104.978ZM313.243 103.368C313.698 103.368 314.074 103.205 314.354 102.874C314.635 102.543 314.843 102.127 314.972 101.622C315.101 101.117 315.162 100.64 315.162 100.186C315.162 99.7032 315.112 99.2936 315.005 98.9569C314.899 98.6202 314.758 98.3397 314.579 98.1208C314.399 97.902 314.208 97.7392 314.001 97.6326C313.793 97.5316 313.602 97.4755 313.417 97.4755C312.963 97.4755 312.587 97.6382 312.306 97.9693C312.02 98.3004 311.812 98.7156 311.683 99.2094C311.554 99.7032 311.487 100.191 311.487 100.674C311.487 101.291 311.577 101.802 311.756 102.189C311.936 102.582 312.16 102.874 312.43 103.064C312.699 103.255 312.974 103.356 313.243 103.356V103.368Z" fill="white"/>
<path d="M324.202 105.078L322.873 99.2985L320.785 105.061H320.701L318.838 96.2234H320.1L321.363 102.087L320.909 101.986L322.541 97.6711L322.21 96.2234H323.321L324.528 101.84L324.281 101.88L326.312 96.2234H327.558L324.281 105.084H324.197L324.202 105.078Z" fill="white"/>
<path d="M331.172 92.4641H332.446L332.143 96.2631H333.708L333.585 97.7894H332.019L331.458 104.77H330.184L330.734 97.7894H329.69L329.814 96.2631H330.869L331.172 92.4641Z" fill="white"/>
<path d="M337.72 97.8513C337.967 97.2733 338.309 96.802 338.741 96.4372C339.173 96.0725 339.662 95.8873 340.2 95.8873C340.739 95.8873 341.16 96.123 341.463 96.6C341.766 97.0769 341.895 97.6942 341.844 98.4461L341.339 104.765H340.049L340.503 99.0858C340.531 98.6313 340.47 98.2609 340.324 97.9804C340.178 97.6998 339.937 97.5595 339.594 97.5595C339.252 97.5595 338.938 97.6998 338.646 97.9748C338.354 98.2497 338.113 98.6313 337.928 99.1083C337.742 99.5853 337.619 100.146 337.563 100.78L337.232 104.765H335.958L337.249 88.7832H338.511L337.742 98.2609L337.714 97.8457L337.72 97.8513Z" fill="white"/>
<path d="M179.612 83.256H191.222L171.75 43.6616L152.284 83.256H162.093L165.808 75.1868L171.762 73.8232L167.615 71.2644L171.717 62.3534L179.612 83.256Z" fill="white"/>
<path d="M330.729 45.5411L330.869 65.2092L303.928 44.1606H303.917V54.5362V55.5968V83.2556H314.13L313.995 63.9691L340.896 84.608V45.5411H330.729Z" fill="white"/>
<path d="M326.542 84.687L326.441 84.6084V84.687H326.542Z" fill="white"/>
<path d="M146.202 78.5422L146.207 78.5654L146.219 78.5422H146.202Z" fill="white"/>
</svg>
