<svg width="69" height="76" viewBox="0 0 69 76" fill="none" xmlns="http://www.w3.org/2000/svg">
<path d="M68.6836 40.4691C68.6423 57.2391 57.3875 71.1309 41.4103 74.6607C24.0542 78.4973 5.77434 67.4287 1.31381 50.2105C-2.18153 36.7083 1.34139 25.1054 11.3586 15.457C13.2924 13.5956 16.188 13.5887 18.0839 15.3502C20.0797 17.2081 20.2969 20.0658 18.4045 22.1375C16.1535 24.6021 13.8819 27.0082 12.3755 30.0554C4.31277 46.367 16.119 65.6018 34.3162 65.5087C43.9094 65.457 51.3069 61.0482 55.8846 52.6201C60.3486 44.4022 59.9797 36.0361 55.1331 28.0216C53.9198 26.012 52.21 24.285 50.614 22.5339C48.6561 20.3829 48.5458 17.4529 50.4934 15.488C52.4237 13.537 55.4158 13.6266 57.5289 15.619C63.7233 21.4584 67.4117 28.5835 68.5182 37.022C68.6905 38.3388 68.6492 39.6831 68.6836 40.4725V40.4691Z" fill="#00868F"/>
<path d="M32.9894 43.2852C31.0074 45.3948 29.2838 47.1528 27.6568 48.997C26.9743 49.7692 26.3917 50.6688 25.9264 51.5927C24.7475 53.9367 24.9474 56.7598 26.3297 58.1628C27.7775 59.6347 29.5493 60.1518 31.5417 59.6588C33.7685 59.1073 34.713 57.3596 35.168 55.3259C36.1091 51.1032 33.4134 47.5975 32.9894 43.2817V43.2852ZM28.8978 56.9391C28.8702 57.3286 28.4772 57.956 28.1704 58.0111C27.4052 58.1456 26.3331 56.4668 26.3055 54.8984C26.44 54.7709 26.733 54.2573 27.0915 54.209C27.8843 54.0952 28.9839 55.7361 28.8978 56.9391Z" fill="#00868F"/>
<path d="M20.9484 27.5666C21.269 27.7666 21.3724 27.87 21.4965 27.901C23.5165 28.4284 24.3541 29.8831 24.9436 31.7893C26.1259 35.6087 27.5393 39.3557 28.8388 43.1406C28.9595 43.4956 28.9526 43.8989 29.0043 44.2781C29.1456 44.2643 29.2835 44.2471 29.4248 44.2333C31.038 40.8793 32.6513 37.5218 34.3162 34.0575C38.0391 35.8465 41.6413 37.5804 45.2469 39.3143L45.3641 39.073C41.7654 37.3426 38.1666 35.6121 34.4472 33.8231C34.6575 33.3853 34.8057 33.082 34.9505 32.7752C38.6596 25.0572 42.3169 17.315 46.119 9.6418C47.1015 7.65628 48.432 5.81209 49.8005 4.05752C50.4762 3.1923 51.6034 2.67869 52.6099 1.9479C51.7998 1.64801 50.9346 1.23436 50.0246 1.0103C45.1332 -0.189289 40.876 0.989614 37.2773 4.52288C35.0987 6.66696 33.5475 9.23849 32.2238 11.9651C30.1521 16.2257 28.1046 20.5001 25.9881 24.7366C24.8402 27.0358 23.744 27.6218 20.9484 27.5735V27.5666Z" fill="#F68F1E"/>
</svg>
